<svg width="1920" height="864" viewBox="0 0 1920 864" fill="none" xmlns="http://www.w3.org/2000/svg">
<g opacity="0.08" clip-path="url(#clip0_382_4059)">
<path d="M1503.92 75.2992L1501.52 72.9192L913.09 657.874L915.491 660.254L1503.92 75.2992Z" fill="url(#paint0_linear_382_4059)"/>
<path d="M1397.29 -151.982L1394.89 -154.369L806.455 430.586L808.856 432.972L1397.29 -151.982Z" fill="url(#paint1_linear_382_4059)"/>
<path d="M555.514 -230.636L557.915 -233.022L1146.35 351.933L1143.95 354.319L555.514 -230.636Z" fill="url(#paint2_linear_382_4059)"/>
<path d="M-98.2852 9.82688L-95.8843 7.44019L492.549 592.395L490.148 594.782L-98.2852 9.82688Z" fill="url(#paint3_linear_382_4059)"/>
<path d="M555.514 44.6563L557.915 42.2764L1146.35 627.231L1143.95 629.611L555.514 44.6563Z" fill="url(#paint4_linear_382_4059)"/>
<path d="M-128.805 1307.62L-126.404 1310L462.03 725.045L459.629 722.665L-128.805 1307.62Z" fill="url(#paint5_linear_382_4059)"/>
<path d="M1668.57 1103.62L1666.17 1106L1077.74 521.044L1080.14 518.664L1668.57 1103.62Z" fill="url(#paint6_linear_382_4059)"/>
<path d="M1964.28 840.004L1961.87 842.384L1373.44 257.429L1375.84 255.049L1964.28 840.004Z" fill="url(#paint7_linear_382_4059)"/>
<path d="M1626.53 873.539L1624.12 875.926L1035.69 290.971L1038.09 288.584L1626.53 873.539Z" fill="url(#paint8_linear_382_4059)"/>
<path d="M1891.71 -62.4817L1889.31 -64.8684L1300.87 520.086L1303.27 522.473L1891.71 -62.4817Z" fill="url(#paint9_linear_382_4059)"/>
<path d="M1765.56 813.764L1763.16 816.151L1174.72 231.196L1177.13 228.809L1765.56 813.764Z" fill="url(#paint10_linear_382_4059)"/>
<path d="M788.25 -130.577L785.849 -132.963L197.416 451.991L199.817 454.378L788.25 -130.577Z" fill="url(#paint11_linear_382_4059)"/>
<path d="M1132.78 -327.613L1130.38 -330L541.949 254.955L544.35 257.341L1132.78 -327.613Z" fill="url(#paint12_linear_382_4059)"/>
<path d="M100.432 1266.44L102.833 1268.83L691.266 683.871L688.865 681.484L100.432 1266.44Z" fill="url(#paint13_linear_382_4059)"/>
</g>
<defs>
<linearGradient id="paint0_linear_382_4059" x1="888.367" y1="681.131" x2="1287.59" y2="284.174" gradientUnits="userSpaceOnUse">
<stop stop-color="white"/>
<stop offset="1" stop-color="#074DA7"/>
</linearGradient>
<linearGradient id="paint1_linear_382_4059" x1="781.733" y1="453.849" x2="1180.96" y2="56.8926" gradientUnits="userSpaceOnUse">
<stop stop-color="white"/>
<stop offset="1" stop-color="#074DA7"/>
</linearGradient>
<linearGradient id="paint2_linear_382_4059" x1="1108.33" y1="313.553" x2="709.107" y2="-83.4034" gradientUnits="userSpaceOnUse">
<stop stop-color="white"/>
<stop offset="1" stop-color="#074DA7"/>
</linearGradient>
<linearGradient id="paint3_linear_382_4059" x1="454.539" y1="554.015" x2="55.3142" y2="157.059" gradientUnits="userSpaceOnUse">
<stop stop-color="white"/>
<stop offset="1" stop-color="#074DA7"/>
</linearGradient>
<linearGradient id="paint4_linear_382_4059" x1="1108.33" y1="588.847" x2="709.107" y2="191.891" gradientUnits="userSpaceOnUse">
<stop stop-color="white"/>
<stop offset="1" stop-color="#074DA7"/>
</linearGradient>
<linearGradient id="paint5_linear_382_4059" x1="424.02" y1="763.418" x2="24.795" y2="1160.37" gradientUnits="userSpaceOnUse">
<stop stop-color="white"/>
<stop offset="1" stop-color="#074DA7"/>
</linearGradient>
<linearGradient id="paint6_linear_382_4059" x1="1053.03" y1="497.778" x2="1452.25" y2="894.734" gradientUnits="userSpaceOnUse">
<stop stop-color="white"/>
<stop offset="1" stop-color="#074DA7"/>
</linearGradient>
<linearGradient id="paint7_linear_382_4059" x1="1348.73" y1="234.166" x2="1747.95" y2="631.122" gradientUnits="userSpaceOnUse">
<stop stop-color="white"/>
<stop offset="1" stop-color="#074DA7"/>
</linearGradient>
<linearGradient id="paint8_linear_382_4059" x1="1010.98" y1="267.706" x2="1410.2" y2="664.662" gradientUnits="userSpaceOnUse">
<stop stop-color="white"/>
<stop offset="1" stop-color="#074DA7"/>
</linearGradient>
<linearGradient id="paint9_linear_382_4059" x1="1276.15" y1="543.347" x2="1675.37" y2="146.391" gradientUnits="userSpaceOnUse">
<stop stop-color="white"/>
<stop offset="1" stop-color="#074DA7"/>
</linearGradient>
<linearGradient id="paint10_linear_382_4059" x1="1150.01" y1="207.929" x2="1549.24" y2="604.885" gradientUnits="userSpaceOnUse">
<stop stop-color="white"/>
<stop offset="1" stop-color="#074DA7"/>
</linearGradient>
<linearGradient id="paint11_linear_382_4059" x1="172.7" y1="475.253" x2="571.924" y2="78.2968" gradientUnits="userSpaceOnUse">
<stop stop-color="white"/>
<stop offset="1" stop-color="#074DA7"/>
</linearGradient>
<linearGradient id="paint12_linear_382_4059" x1="517.23" y1="278.217" x2="916.454" y2="-118.739" gradientUnits="userSpaceOnUse">
<stop stop-color="white"/>
<stop offset="1" stop-color="#074DA7"/>
</linearGradient>
<linearGradient id="paint13_linear_382_4059" x1="100.432" y1="1268.83" x2="691.266" y2="1268.83" gradientUnits="userSpaceOnUse">
<stop stop-color="#0D57D7"/>
<stop offset="1" stop-color="#4D8EFF"/>
</linearGradient>
<clipPath id="clip0_382_4059">
<rect width="1920" height="864" fill="white"/>
</clipPath>
</defs>
</svg>
