<svg width="67" height="30" viewBox="0 0 67 30" fill="none" xmlns="http://www.w3.org/2000/svg">
<path d="M65.6974 6.21512C59.8009 7.13844 54.3415 9.05127 48.2265 9.44713C47.0256 9.51298 46.807 8.58966 47.353 8.19379C48.1171 7.66612 49.1001 6.87472 50.192 6.21512C47.1344 6.0831 44.2954 5.42361 41.238 5.02775C38.399 4.63199 35.56 4.89583 32.9395 5.48946C33.5947 5.88522 34.1405 6.34693 34.7958 6.80865C39.1633 10.5683 41.8931 22.9027 30.5373 23.7602C24.0949 24.2879 18.1985 19.3409 17.8709 15.8451C17.4341 11.2279 22.0202 7.33632 28.2442 5.02775C25.6236 3.9724 22.457 3.44472 19.072 3.31291C11.9745 3.11492 6.95163 5.95118 4.54939 9.77693C0.181856 16.7686 3.89441 26.3327 16.3424 29.0371C16.8884 29.169 16.8884 29.6967 16.2332 29.6967C0.618627 29.5647 -1.56523 15.5154 2.36571 8.98541C6.84262 1.53201 21.5836 -0.0511265 30.865 4.3023C31.6294 4.10442 32.5029 3.84058 33.3765 3.70867C39.3819 2.45544 44.7323 4.23634 50.5196 4.63199C49.7552 3.77452 48.9909 2.85119 47.8989 2.05957C47.1346 1.46594 47.7897 0.476545 49.2092 0.740492C55.1057 1.79584 61.1113 2.58735 66.1341 4.76401C66.8987 5.15977 66.8987 6.0831 65.6974 6.21512ZM30.5375 6.21512C29.2271 6.67684 27.9168 7.20451 26.8249 7.79815C19.2906 11.6238 18.1987 18.7474 27.5892 21.9134C31.957 23.3646 34.4682 20.1325 35.3419 18.0878C36.6522 15.1196 35.8879 11.6897 33.8132 8.91946C32.8305 7.86411 31.7386 7.00663 30.5375 6.21512ZM54.1229 5.35765C54.2321 5.35765 54.3415 5.48957 54.3415 5.55553C54.0139 6.28108 53.031 6.87472 51.9392 7.46835C55.4334 6.87472 58.709 5.95129 62.2032 5.29169C58.9276 4.23634 55.324 3.57675 51.6117 2.91715C52.2668 3.64271 52.8126 4.36837 53.7953 4.962C54.0139 5.09381 54.1229 5.22573 54.1229 5.35765Z" fill="#0D57D7"/>
</svg>
