<svg width="315" height="388" viewBox="0 0 315 388" fill="none" xmlns="http://www.w3.org/2000/svg">
<path fill-rule="evenodd" clip-rule="evenodd" d="M23.7607 2.21625C24.5351 2.14089 25.3205 2.10229 26.1152 2.10229H28.579V0.102295H26.1152C25.2557 0.102295 24.4057 0.144037 23.567 0.225655L23.7607 2.21625ZM33.5065 2.10229H38.4341V0.102295H33.5065V2.10229ZM43.3616 2.10229H48.2892V0.102295H43.3616V2.10229ZM53.2167 2.10229H58.1442V0.102295H53.2167V2.10229ZM63.0718 2.10229H67.9993V0.102295H63.0718V2.10229ZM72.9269 2.10229H77.8544V0.102295H72.9269V2.10229ZM82.7819 2.10229H87.7095V0.102295H82.7819V2.10229ZM92.637 2.10229H97.5646V0.102295H92.637V2.10229ZM102.492 2.10229H107.42V0.102295H102.492V2.10229ZM112.347 2.10229H117.275V0.102295H112.347V2.10229ZM122.202 2.10229H127.13V0.102295H122.202V2.10229ZM132.057 2.10229H136.985V0.102295H132.057V2.10229ZM141.912 2.10229H146.84V0.102295H141.912V2.10229ZM151.767 2.10229H156.695V0.102295H151.767V2.10229ZM161.623 2.10229H166.55V0.102295H161.623V2.10229ZM171.478 2.10229H176.405V0.102295H171.478V2.10229ZM181.333 2.10229H186.26V0.102295H181.333V2.10229ZM191.188 2.10229H196.115V0.102295H191.188V2.10229ZM201.043 2.10229H205.97V0.102295H201.043V2.10229ZM210.898 2.10229H215.825V0.102295H210.898V2.10229ZM220.753 2.10229H225.681V0.102295H220.753V2.10229ZM230.608 2.10229H235.536V0.102295H230.608V2.10229ZM240.463 2.10229H245.391V0.102295H240.463V2.10229ZM250.318 2.10229H255.246V0.102295H250.318V2.10229ZM260.173 2.10229H265.101V0.102295H260.173V2.10229ZM270.028 2.10229H274.956V0.102295H270.028V2.10229ZM279.883 2.10229H282.347C283.142 2.10229 283.927 2.14089 284.702 2.21625L284.896 0.225655C284.057 0.144037 283.207 0.102295 282.347 0.102295H279.883V2.10229ZM289.317 3.12967C290.834 3.58936 292.288 4.19535 293.662 4.93134L294.606 3.16831C293.117 2.37081 291.542 1.71394 289.897 1.21559L289.317 3.12967ZM14.8004 4.93134C16.1745 4.19535 17.6283 3.58936 19.1456 3.12967L18.5657 1.21559C16.9208 1.71394 15.345 2.37081 13.8561 3.16831L14.8004 4.93134ZM7.56189 10.877C8.56002 9.6622 9.67514 8.54708 10.89 7.54895L9.62033 6.00364C8.30485 7.08446 7.0974 8.29191 6.01658 9.60739L7.56189 10.877ZM297.573 7.54895C298.787 8.54709 299.902 9.66221 300.901 10.877L302.446 9.6074C301.365 8.29191 300.158 7.08447 298.842 6.00364L297.573 7.54895ZM3.14261 19.1327C3.6023 17.6154 4.20829 16.1615 4.94428 14.7874L3.18125 13.8431C2.38374 15.3321 1.72688 16.9079 1.22853 18.5528L3.14261 19.1327ZM303.518 14.7874C304.254 16.1615 304.86 17.6154 305.32 19.1327L307.234 18.5528C306.736 16.9079 306.079 15.3321 305.281 13.8431L303.518 14.7874ZM2.11523 26.1023C2.11523 25.3076 2.15383 24.5221 2.22919 23.7478L0.238595 23.5541C0.156976 24.3927 0.115234 25.2428 0.115234 26.1023V28.6094H2.11523V26.1023ZM306.233 23.7478C306.309 24.5222 306.347 25.3076 306.347 26.1023V28.644H308.347V26.1023C308.347 25.2428 308.305 24.3927 308.224 23.5541L306.233 23.7478ZM2.11523 38.6372V33.6233H0.115234V38.6372H2.11523ZM306.347 33.7273V38.8106H308.347V33.7273H306.347ZM2.11523 48.665V43.6511H0.115234V48.665H2.11523ZM306.347 43.894V48.9773H308.347V43.894H306.347ZM2.11523 58.6927V53.6789H0.115234V58.6927H2.11523ZM306.347 54.0606V59.144H308.347V54.0606H306.347ZM2.11523 68.7205V63.7066H0.115234V68.7205H2.11523ZM306.347 64.2273V69.3106H308.347V64.2273H306.347ZM2.11523 78.7483V73.7344H0.115234V78.7483H2.11523ZM306.347 74.394V79.4773H308.347V74.394H306.347ZM2.11523 88.776V83.7622H0.115234V88.776H2.11523ZM306.347 84.5606V89.644H308.347V84.5606H306.347ZM2.11523 98.8038V93.7899H0.115234V98.8038H2.11523ZM306.347 94.7273V99.8106H308.347V94.7273H306.347ZM2.11523 108.832V103.818H0.115234V108.832H2.11523ZM306.347 104.894V109.977H308.347V104.894H306.347ZM2.11523 118.859V113.845H0.115234V118.859H2.11523ZM306.347 115.061V120.144H308.347V115.061H306.347ZM2.11523 128.887V123.873H0.115234V128.887H2.11523ZM306.347 125.227V130.311H308.347V125.227H306.347ZM2.11523 138.915V133.901H0.115234V138.915H2.11523ZM306.347 136H308.347V135.394H306.347V136ZM2.11523 148.943V143.929H0.115234V148.943H2.11523ZM2.11523 158.97V153.957H0.115234V158.97H2.11523ZM2.11523 168.998V163.984H0.115234V168.998H2.11523ZM2.11523 179.026V174.012H0.115234V179.026H2.11523ZM2.11523 189.054V184.04H0.115234V189.054H2.11523ZM2.11523 199.082V194.068H0.115234V199.082H2.11523ZM2.11523 209.109V204.095H0.115234V209.109H2.11523ZM2.11523 219.137V214.123H0.115234V219.137H2.11523ZM2.11523 229.165V224.151H0.115234V229.165H2.11523ZM2.11523 239.193V234.179H0.115234V239.193H2.11523ZM2.11523 249.22V244.207H0.115234V249.22H2.11523ZM2.11523 259.248V254.234H0.115234V259.248H2.11523ZM2.11523 269.276V264.262H0.115234V269.276H2.11523ZM2.11523 279.304V274.29H0.115234V279.304H2.11523ZM2.11523 289.331V284.318H0.115234V289.331H2.11523ZM2.11523 299.359V294.345H0.115234V299.359H2.11523ZM2.11523 309.387V304.373H0.115234V309.387H2.11523ZM2.11523 319.415V314.401H0.115234V319.415H2.11523ZM2.11523 329.443V324.429H0.115234V329.443H2.11523ZM2.11523 339.47V334.456H0.115234V339.47H2.11523ZM2.11523 349.498V344.484H0.115234V349.498H2.11523ZM2.11523 359.526V354.512H0.115234V359.526H2.11523ZM2.11523 369.554V364.54H0.115234V369.554H2.11523ZM2.11523 379.581V374.568H0.115234V379.581H2.11523ZM2.11523 387.102V384.595H0.115234V387.102H2.11523Z" fill="url(#paint0_linear_478_2561)"/>
<path d="M306.983 134.557L306.997 134.584C307.063 134.715 307.227 134.961 307.409 135.226C307.6 135.505 307.841 135.848 308.086 136.198L308.088 136.2L306.983 134.557ZM306.983 134.557C306.625 135.027 304.859 137.367 303.129 140.142C302.199 141.633 301.286 143.241 300.606 144.746C299.92 146.265 299.5 147.622 299.5 148.629C299.5 152.99 302.886 156.5 307 156.5C311.114 156.5 314.5 152.99 314.5 148.629C314.5 147.857 314.261 146.901 313.838 145.824C313.418 144.754 312.831 143.599 312.167 142.439C310.838 140.119 309.226 137.821 308.088 136.2L306.983 134.557ZM307.04 134.483C307.04 134.483 307.04 134.483 307.04 134.483L307.04 134.483Z" stroke="url(#paint1_linear_478_2561)"/>
<path fill-rule="evenodd" clip-rule="evenodd" d="M309.881 147.197L307.288 149.877C307.129 150.041 306.871 150.041 306.712 149.877L304.119 147.197C303.96 147.033 303.96 146.766 304.119 146.602C304.278 146.437 304.536 146.437 304.695 146.602L306.593 148.562L306.593 142L307.407 142L307.407 148.562L309.305 146.602C309.464 146.437 309.722 146.437 309.881 146.602C310.04 146.766 310.04 147.033 309.881 147.197Z" fill="url(#paint2_linear_478_2561)"/>
<defs>
<linearGradient id="paint0_linear_478_2561" x1="0.115234" y1="387.102" x2="308.347" y2="387.102" gradientUnits="userSpaceOnUse">
<stop stop-color="#0D57D7"/>
<stop offset="1" stop-color="#4D8EFF"/>
</linearGradient>
<linearGradient id="paint1_linear_478_2561" x1="315" y1="157" x2="299" y2="157" gradientUnits="userSpaceOnUse">
<stop stop-color="#0D57D7"/>
<stop offset="1" stop-color="#4D8EFF"/>
</linearGradient>
<linearGradient id="paint2_linear_478_2561" x1="304" y1="142" x2="304" y2="150" gradientUnits="userSpaceOnUse">
<stop stop-color="#0D57D7"/>
<stop offset="1" stop-color="#4D8EFF"/>
</linearGradient>
</defs>
</svg>
